Coordinates
version=1
nRows=14
nColumns=33
inDegrees=yes

Units are S.I. units (second, meters, Newtons, ...)
Angles are in degrees.

endheader
time	ground_thorax_rot_x	ground_thorax_rot_y	ground_thorax_rot_z	ground_thorax_tx	ground_thorax_ty	ground_thorax_tz	clav_prot_r	clav_elev_r	scapula_abduction_r	scapula_elevation_r	scapula_upward_rot_r	scapula_winging_r	shoulder_elv_r	plane_of_elev_r	axial_rot_r	elbow_flexion_r	pro_sup_r	wrist_flex_r	wrist_dev_r	clav_prot_l	clav_elev_l	scapula_abduction_l	scapula_elevation_l	scapula_upward_rot_l	scapula_winging_l	shoulder_elv_l	plane_of_elev_l	axial_rot_l	elbow_flexion_l	pro_sup_l	wrist_flex_l	wrist_dev_l
      7.36000000	     34.65349857	     11.51680045	     22.94433117	    -74.81470780	    793.39827532	     -2.55522904	     14.38859425	     45.00000000	     45.00000000	     41.57209343	     45.00000000	  -1110.60053954	  -2295.76208740	    -90.00000000	    -52.20346953	   2152.90625301	   -104.00882262	     17.87024981	     12.97084711	     15.10534798	    -45.00000000	    -42.24918987	     45.00000000	    -44.26575025	   1169.61449553	  -2089.53447739	     19.17544467	    -44.49172768	   1805.44699092	     17.44575091	     10.97161028	    -18.50819163
      7.37000000	     35.00827776	     11.09825903	     22.45274740	    -80.25459864	    793.68112679	     -3.05099711	     14.50991325	     45.00000000	     45.00000000	     41.95382175	     45.00000000	  -1110.70827520	  -2295.58588472	    -90.00000000	    -52.32832306	   2152.87812445	   -102.46988647	     17.86644305	     12.82692971	     14.63676520	    -45.00000000	    -41.76947769	     45.00000000	    -44.79082273	   1169.70553253	  -2089.37532827	     19.20997286	    -44.68775646	   1805.62481149	     17.69656364	     11.14932702	    -18.64760900
      7.38000000	     35.29458636	     10.71691491	     22.05905839	    -85.76169388	    794.08594144	     -3.53002128	     14.53065179	     45.00000000	     45.00000000	     42.31042463	     45.00000000	  -1110.83352030	  -2295.56909300	    -90.00000000	    -52.29820545	   2152.80245977	   -101.24225624	     17.68906431	     12.71443445	     14.49513069	    -45.00000000	    -41.29516581	     45.00000000	    -45.00000000	   1169.97621006	  -2089.24772088	     19.05839983	    -46.20116236	   1805.85585824	     18.06938849	     10.87958859	    -18.65174812
      7.39000000	     35.48439777	     10.24544817	     21.70094126	    -91.31240264	    794.61555974	     -3.99251314	     14.53335522	     45.00000000	     45.00000000	     42.55119320	     45.00000000	  -1110.84721438	  -2295.58948138	    -90.00000000	    -52.23541616	   2152.79719332	   -100.17929027	     17.72313460	     12.66899078	     14.27339856	    -45.00000000	    -40.84606520	     45.00000000	    -45.00000000	   1170.20579337	  -2088.93774850	     18.60118448	    -47.83934631	   1806.11875781	     18.41746758	     10.79600422	    -18.75530704
      7.40000000	     35.97026497	      9.81361535	     20.88738861	    -96.89779370	    795.27126607	     -4.44241106	     14.71936738	     45.00000000	     45.00000000	     43.04888115	     45.00000000	  -1111.00724006	  -2295.35637854	    -90.00000000	    -52.41991895	   2152.72392446	    -98.67193402	     17.73407033	     12.54101194	     13.78233319	    -45.00000000	    -40.63579101	     45.00000000	    -45.00000000	   1170.19480584	  -2089.26607865	     18.73261981	    -46.94056164	   1805.94225036	     18.35017761	     11.21216995	    -18.83201019
      7.41000000	     36.03444375	      9.52449852	     20.94894628	   -102.49645471	    796.05149654	     -4.88237121	     14.53916730	     45.00000000	     45.00000000	     43.40070705	     45.00000000	  -1111.16012960	  -2295.58748531	    -90.00000000	    -52.15200457	   2152.80792261	    -97.84555257	     17.46410441	     12.54172529	     14.24624916	    -45.00000000	    -40.06500837	     45.00000000	    -45.00000000	   1171.07646728	  -2089.00590369	     18.34019173	    -50.73764885	   1806.43419928	     19.03096774	     10.50940083	    -18.87592046
      7.42000000	     36.43212345	      8.99387052	     19.96929843	   -108.08223833	    796.95106091	     -5.31430032	     14.85744145	     45.00000000	     45.00000000	     43.68812610	     45.00000000	  -1111.17312260	  -2295.19508214	    -90.00000000	    -52.49869397	   2152.76728369	    -96.21332591	     17.73270119	     12.42390367	     13.50826290	    -45.00000000	    -39.90022753	     45.00000000	    -45.00000000	   1170.67095414	  -2089.10552767	     18.23183244	    -48.76373188	   1806.22232723	     18.78145137	     11.10013695	    -18.99464334
      7.43000000	     36.56089750	      8.56910757	     19.48847666	   -113.64626017	    797.96688676	     -5.73899434	     14.85825973	     45.00000000	     45.00000000	     43.84500066	     45.00000000	  -1111.25862581	  -2295.13579211	    -90.00000000	    -52.51748981	   2152.72704347	    -94.90428575	     17.68341466	     12.37016735	     13.35857768	    -45.00000000	    -39.43298233	     45.00000000	    -45.00000000	   1170.81142938	  -2088.66781137	     17.77839182	    -50.46421047	   1806.55350897	     19.20006461	     10.92339739	    -19.16286330
      7.44000000	     36.80390164	      8.21437737	     19.03493092	   -119.15484503	    799.09072386	     -6.15319960	     14.99969347	     45.00000000	     45.00000000	     44.22189378	     45.00000000	  -1111.40750179	  -2295.07326075	    -90.00000000	    -52.53471990	   2152.64203396	    -93.21259302	     17.81851634	     12.27207687	     13.18047267	    -45.00000000	    -39.32301194	     45.00000000	    -45.00000000	   1171.28362131	  -2088.99273367	     17.88345573	    -50.16802427	   1806.45526422	     19.38272889	     11.21259283	    -19.29138719
      7.45000000	     37.00029067	      7.88272875	     18.62174977	   -124.60089330	    800.31927260	     -6.55309084	     15.01629117	     45.00000000	     45.00000000	     44.54720507	     45.00000000	  -1111.55849833	  -2294.98134391	    -90.00000000	    -52.58468860	   2152.62990403	    -91.75726364	     17.86388073	     12.21473179	     13.03744385	    -45.00000000	    -38.89968713	     45.00000000	    -45.00000000	   1171.41460730	  -2088.79522434	     17.46964802	    -51.55445957	   1806.66400864	     19.88975932	     11.05417787	    -19.43580310
      7.46000000	     37.18448013	      7.51551917	     18.17343348	   -129.95519431	    801.64523271	     -6.93233860	     15.07907362	     45.00000000	     45.00000000	     44.78001250	     45.00000000	  -1111.61802038	  -2294.93351287	    -90.00000000	    -52.59069437	   2152.59207979	    -90.25044335	     17.90207511	     12.15426867	     12.96214922	    -45.00000000	    -38.59412219	     45.00000000	    -45.00000000	   1171.75574566	  -2088.78536683	     17.35426386	    -52.26726086	   1806.73893119	     20.37292774	     11.09113611	    -19.58474952
      7.47000000	     37.31634158	      7.18667478	     17.77801930	   -135.20618430	    803.06553603	     -7.28585716	     15.12035524	     45.00000000	     45.00000000	     45.00000000	     45.00000000	  -1111.72420493	  -2294.81806361	    -90.00000000	    -52.66580680	   2152.60151759	    -88.84125954	     17.98918187	     12.10662379	     12.91598044	    -45.00000000	    -38.25628237	     45.00000000	    -45.00000000	   1172.05753145	  -2088.63381988	     17.07268167	    -53.26940924	   1806.97772377	     20.98292057	     10.95319838	    -19.75636619
      7.48000000	     37.44373193	      6.76652019	     17.25212353	   -140.32958655	    804.57443943	     -7.60923864	     15.17223186	     45.00000000	     45.00000000	     45.00000000	     45.00000000	  -1111.59647551	  -2294.62320928	    -90.00000000	    -52.82140509	   2152.70522712	    -87.52891081	     18.07085931	     12.09037822	     12.74171480	    -45.00000000	    -38.00026133	     45.00000000	    -45.00000000	   1172.29653042	  -2088.50060627	     16.86839198	    -53.93792531	   1807.16917741	     21.64058990	     10.87881687	    -19.92201644
      7.49000000	     37.49718688	      6.39662904	     16.81684545	   -145.30778200	    806.16640484	     -7.90074687	     15.23676051	     45.00000000	     45.00000000	     45.00000000	     45.00000000	  -1111.59623484	  -2294.46713517	    -90.00000000	    -52.93791568	   2152.71662236	    -86.24246803	     18.20077076	     12.03393607	     12.66652756	    -45.00000000	    -37.77587424	     45.00000000	    -45.00000000	   1172.68189573	  -2088.42146780	     16.77541914	    -54.39689786	   1807.27051680	     22.40543320	     10.87409906	    -20.09596309
